<mxfile host="app.diagrams.net" agent="Mozilla/5.0 (Windows NT 10.0; Win64; x64) AppleWebKit/537.36 (KHTML, like Gecko) Chrome/132.0.0.0 Safari/537.36" version="26.0.8">
  <diagram name="Strona-1" id="0R6AnIUHgZGYWUxz4fdb">
    <mxGraphModel dx="2312" dy="713" grid="1" gridSize="10" guides="1" tooltips="1" connect="1" arrows="1" fold="1" page="1" pageScale="1" pageWidth="827" pageHeight="1169" math="0" shadow="0">
      <root>
        <mxCell id="0" />
        <mxCell id="1" parent="0" />
        <mxCell id="Qq7uo0nVKQWr4Xk_vDtd-2" value="Training stage" style="rounded=1;whiteSpace=wrap;html=1;fillColor=light-dark(#F19C99,var(--ge-dark-color, #121212));" vertex="1" parent="1">
          <mxGeometry x="130" y="190" width="120" height="60" as="geometry" />
        </mxCell>
        <mxCell id="Qq7uo0nVKQWr4Xk_vDtd-3" value="" style="endArrow=classic;html=1;rounded=0;exitX=0.5;exitY=1;exitDx=0;exitDy=0;" edge="1" parent="1" source="Qq7uo0nVKQWr4Xk_vDtd-2" target="Qq7uo0nVKQWr4Xk_vDtd-4">
          <mxGeometry width="50" height="50" relative="1" as="geometry">
            <mxPoint x="380" y="600" as="sourcePoint" />
            <mxPoint x="190" y="330" as="targetPoint" />
          </mxGeometry>
        </mxCell>
        <mxCell id="Qq7uo0nVKQWr4Xk_vDtd-13" style="edgeStyle=orthogonalEdgeStyle;rounded=0;orthogonalLoop=1;jettySize=auto;html=1;entryX=0.5;entryY=0;entryDx=0;entryDy=0;" edge="1" parent="1" source="Qq7uo0nVKQWr4Xk_vDtd-4" target="Qq7uo0nVKQWr4Xk_vDtd-5">
          <mxGeometry relative="1" as="geometry" />
        </mxCell>
        <mxCell id="Qq7uo0nVKQWr4Xk_vDtd-4" value="URL" style="rounded=1;whiteSpace=wrap;html=1;fillColor=light-dark(#F19C99,var(--ge-dark-color, #121212));" vertex="1" parent="1">
          <mxGeometry x="110" y="310" width="160" height="60" as="geometry" />
        </mxCell>
        <mxCell id="Qq7uo0nVKQWr4Xk_vDtd-5" value="Feature Extraction" style="rounded=1;whiteSpace=wrap;html=1;fillColor=light-dark(#EA6B66,var(--ge-dark-color, #121212));" vertex="1" parent="1">
          <mxGeometry x="110" y="400" width="160" height="60" as="geometry" />
        </mxCell>
        <mxCell id="Qq7uo0nVKQWr4Xk_vDtd-22" style="edgeStyle=orthogonalEdgeStyle;rounded=0;orthogonalLoop=1;jettySize=auto;html=1;entryX=0;entryY=0.5;entryDx=0;entryDy=0;" edge="1" parent="1" source="Qq7uo0nVKQWr4Xk_vDtd-6" target="Qq7uo0nVKQWr4Xk_vDtd-17">
          <mxGeometry relative="1" as="geometry" />
        </mxCell>
        <mxCell id="Qq7uo0nVKQWr4Xk_vDtd-6" value="Model Training" style="shape=cylinder3;whiteSpace=wrap;html=1;boundedLbl=1;backgroundOutline=1;size=15;fillColor=light-dark(#CDA2BE,var(--ge-dark-color, #121212));" vertex="1" parent="1">
          <mxGeometry x="130" y="490" width="120" height="70" as="geometry" />
        </mxCell>
        <mxCell id="Qq7uo0nVKQWr4Xk_vDtd-10" value="ML algorithm" style="rounded=1;whiteSpace=wrap;html=1;fillColor=light-dark(#E6D0DE,var(--ge-dark-color, #121212));" vertex="1" parent="1">
          <mxGeometry x="-50" y="495" width="120" height="60" as="geometry" />
        </mxCell>
        <mxCell id="Qq7uo0nVKQWr4Xk_vDtd-11" style="edgeStyle=orthogonalEdgeStyle;rounded=0;orthogonalLoop=1;jettySize=auto;html=1;entryX=0;entryY=0.5;entryDx=0;entryDy=0;entryPerimeter=0;" edge="1" parent="1" source="Qq7uo0nVKQWr4Xk_vDtd-10" target="Qq7uo0nVKQWr4Xk_vDtd-6">
          <mxGeometry relative="1" as="geometry" />
        </mxCell>
        <mxCell id="Qq7uo0nVKQWr4Xk_vDtd-12" style="edgeStyle=orthogonalEdgeStyle;rounded=0;orthogonalLoop=1;jettySize=auto;html=1;entryX=0.5;entryY=0;entryDx=0;entryDy=0;entryPerimeter=0;" edge="1" parent="1" source="Qq7uo0nVKQWr4Xk_vDtd-5" target="Qq7uo0nVKQWr4Xk_vDtd-6">
          <mxGeometry relative="1" as="geometry" />
        </mxCell>
        <mxCell id="Qq7uo0nVKQWr4Xk_vDtd-18" style="edgeStyle=orthogonalEdgeStyle;rounded=0;orthogonalLoop=1;jettySize=auto;html=1;entryX=0.5;entryY=0;entryDx=0;entryDy=0;" edge="1" parent="1" source="Qq7uo0nVKQWr4Xk_vDtd-14" target="Qq7uo0nVKQWr4Xk_vDtd-15">
          <mxGeometry relative="1" as="geometry" />
        </mxCell>
        <mxCell id="Qq7uo0nVKQWr4Xk_vDtd-14" value="Detection Stage" style="rounded=1;whiteSpace=wrap;html=1;fillColor=light-dark(#F19C99,var(--ge-dark-color, #121212));" vertex="1" parent="1">
          <mxGeometry x="475" y="190" width="120" height="60" as="geometry" />
        </mxCell>
        <mxCell id="Qq7uo0nVKQWr4Xk_vDtd-19" style="edgeStyle=orthogonalEdgeStyle;rounded=0;orthogonalLoop=1;jettySize=auto;html=1;entryX=0.5;entryY=0;entryDx=0;entryDy=0;" edge="1" parent="1" source="Qq7uo0nVKQWr4Xk_vDtd-15" target="Qq7uo0nVKQWr4Xk_vDtd-16">
          <mxGeometry relative="1" as="geometry" />
        </mxCell>
        <mxCell id="Qq7uo0nVKQWr4Xk_vDtd-15" value="URL" style="rounded=1;whiteSpace=wrap;html=1;fillColor=light-dark(#F19C99,var(--ge-dark-color, #121212));" vertex="1" parent="1">
          <mxGeometry x="460" y="310" width="150" height="60" as="geometry" />
        </mxCell>
        <mxCell id="Qq7uo0nVKQWr4Xk_vDtd-20" style="edgeStyle=orthogonalEdgeStyle;rounded=0;orthogonalLoop=1;jettySize=auto;html=1;entryX=0.5;entryY=0;entryDx=0;entryDy=0;" edge="1" parent="1" source="Qq7uo0nVKQWr4Xk_vDtd-16" target="Qq7uo0nVKQWr4Xk_vDtd-17">
          <mxGeometry relative="1" as="geometry" />
        </mxCell>
        <mxCell id="Qq7uo0nVKQWr4Xk_vDtd-24" style="edgeStyle=orthogonalEdgeStyle;rounded=0;orthogonalLoop=1;jettySize=auto;html=1;exitX=0.5;exitY=1;exitDx=0;exitDy=0;entryX=0.5;entryY=0;entryDx=0;entryDy=0;" edge="1" parent="1" source="Qq7uo0nVKQWr4Xk_vDtd-16" target="Qq7uo0nVKQWr4Xk_vDtd-23">
          <mxGeometry relative="1" as="geometry" />
        </mxCell>
        <mxCell id="Qq7uo0nVKQWr4Xk_vDtd-16" value="Feature Extraction" style="rounded=1;whiteSpace=wrap;html=1;fillColor=light-dark(#EA6B66,var(--ge-dark-color, #121212));" vertex="1" parent="1">
          <mxGeometry x="460" y="400" width="150" height="60" as="geometry" />
        </mxCell>
        <mxCell id="Qq7uo0nVKQWr4Xk_vDtd-26" style="edgeStyle=orthogonalEdgeStyle;rounded=0;orthogonalLoop=1;jettySize=auto;html=1;entryX=0.5;entryY=0;entryDx=0;entryDy=0;" edge="1" parent="1" source="Qq7uo0nVKQWr4Xk_vDtd-17" target="Qq7uo0nVKQWr4Xk_vDtd-25">
          <mxGeometry relative="1" as="geometry" />
        </mxCell>
        <mxCell id="Qq7uo0nVKQWr4Xk_vDtd-17" value="Classification/Testing" style="rounded=1;whiteSpace=wrap;html=1;fillColor=light-dark(#FFD966,var(--ge-dark-color, #121212));" vertex="1" parent="1">
          <mxGeometry x="390" y="495" width="120" height="60" as="geometry" />
        </mxCell>
        <mxCell id="Qq7uo0nVKQWr4Xk_vDtd-27" style="edgeStyle=orthogonalEdgeStyle;rounded=0;orthogonalLoop=1;jettySize=auto;html=1;entryX=0.5;entryY=0;entryDx=0;entryDy=0;" edge="1" parent="1" source="Qq7uo0nVKQWr4Xk_vDtd-23" target="Qq7uo0nVKQWr4Xk_vDtd-25">
          <mxGeometry relative="1" as="geometry" />
        </mxCell>
        <mxCell id="Qq7uo0nVKQWr4Xk_vDtd-23" value="Checking via VT" style="rounded=1;whiteSpace=wrap;html=1;fillColor=light-dark(#A9C4EB,var(--ge-dark-color, #121212));" vertex="1" parent="1">
          <mxGeometry x="550" y="495" width="120" height="60" as="geometry" />
        </mxCell>
        <mxCell id="Qq7uo0nVKQWr4Xk_vDtd-25" value="Verdict (malicious/legitimate)" style="rounded=1;whiteSpace=wrap;html=1;fillColor=light-dark(#A680B8,var(--ge-dark-color, #121212));" vertex="1" parent="1">
          <mxGeometry x="460" y="630" width="140" height="70" as="geometry" />
        </mxCell>
      </root>
    </mxGraphModel>
  </diagram>
</mxfile>
